<svg xmlns="http://www.w3.org/2000/svg" viewBox="0 0 1600 480" width="1600" height="480"><rect width="1600" height="480" fill="#EDE3D2"/><rect y="374" width="1600" height="6" fill="#DED5C5"/><rect y="380" width="1600" height="100" fill="#E3D3BD"/><line x1="133.33333333333334" y1="380" x2="-99.99999999999997" y2="480" stroke="#D5C6B1" stroke-width="2"/><line x1="266.6666666666667" y1="380" x2="80.00000000000006" y2="480" stroke="#D5C6B1" stroke-width="2"/><line x1="400.0" y1="380" x2="260.0" y2="480" stroke="#D5C6B1" stroke-width="2"/><line x1="533.3333333333334" y1="380" x2="440.00000000000006" y2="480" stroke="#D5C6B1" stroke-width="2"/><line x1="666.6666666666666" y1="380" x2="620.0" y2="480" stroke="#D5C6B1" stroke-width="2"/><line x1="800.0" y1="380" x2="800.0" y2="480" stroke="#D5C6B1" stroke-width="2"/><line x1="933.3333333333334" y1="380" x2="980.0" y2="480" stroke="#D5C6B1" stroke-width="2"/><line x1="1066.6666666666667" y1="380" x2="1160.0" y2="480" stroke="#D5C6B1" stroke-width="2"/><line x1="1200.0" y1="380" x2="1340.0" y2="480" stroke="#D5C6B1" stroke-width="2"/><line x1="1333.3333333333333" y1="380" x2="1520.0" y2="480" stroke="#D5C6B1" stroke-width="2"/><line x1="1466.6666666666667" y1="380" x2="1700.0" y2="480" stroke="#D5C6B1" stroke-width="2"/><line x1="620" y1="0" x2="620" y2="70" stroke="#2B2420" stroke-width="2"/><path d="M586 100.6 A34 34 0 0 1 654 100.6 Z" fill="#B8653E"/><ellipse cx="620" cy="100.6" rx="11.899999999999999" ry="4.08" fill="#FFF3D6"/><path d="M586 100.6 L654 100.6 L694.8 240 L545.2 240 Z" fill="#FFF3D6" opacity=".16"/><line x1="800" y1="0" x2="800" y2="95" stroke="#2B2420" stroke-width="2"/><path d="M766 125.6 A34 34 0 0 1 834 125.6 Z" fill="#7D8C6C"/><ellipse cx="800" cy="125.6" rx="11.899999999999999" ry="4.08" fill="#FFF3D6"/><path d="M766 125.6 L834 125.6 L874.8 265 L725.2 265 Z" fill="#FFF3D6" opacity=".16"/><line x1="980" y1="0" x2="980" y2="70" stroke="#2B2420" stroke-width="2"/><path d="M946 100.6 A34 34 0 0 1 1014 100.6 Z" fill="#D4A445"/><ellipse cx="980" cy="100.6" rx="11.899999999999999" ry="4.08" fill="#FFF3D6"/><path d="M946 100.6 L1014 100.6 L1054.8 240 L905.2 240 Z" fill="#FFF3D6" opacity=".16"/><rect x="140" y="80" width="120" height="150" rx="3" fill="#C49A6C"/><rect x="148" y="88" width="104" height="134" fill="#F6F0E7"/><circle cx="215.60000000000002" cy="138.92000000000002" r="16.64" fill="#D98B63"/><path d="M148 188.5 Q179.2 148.3 210.4 181.8 T252 171.07999999999998 L252 222 L148 222 Z" fill="#7D8C6C"/><ellipse cx="330" cy="410" rx="36.0" ry="6.0" fill="#2B2420" opacity="0.13"/><rect x="300.0" y="350.0" width="60.0" height="60.0" rx="10.0" fill="#B8653E"/><path d="M303.0 352.0 Q306.0 162.0 300.0 160.0 Q312.0 256.0 321.0 352.0 Z" fill="#5F6E51"/><path d="M315.0 352.0 Q322.0 122.0 320.0 120.0 Q328.0 232.0 333.0 352.0 Z" fill="#5F6E51"/><path d="M327.0 352.0 Q339.0 142.0 342.0 140.0 Q345.0 244.0 345.0 352.0 Z" fill="#5F6E51"/><path d="M339.0 352.0 Q356.0 182.0 364.0 180.0 Q362.0 268.0 357.0 352.0 Z" fill="#5F6E51"/><path d="M321.0 352.0 Q330.0 202.0 330.0 200.0 Q336.0 280.0 339.0 352.0 Z" fill="#7D8C6C"/><ellipse cx="810.0" cy="420" rx="252.0" ry="10" fill="#2B2420" opacity="0.13"/><rect x="600" y="285.6" width="420" height="16.8" rx="6" fill="#C49A6C"/><path d="M642.0 300.3 L652.5 300.3 L646.5 422.1 L638.0 422.1 Z" fill="#6E4A33"/><path d="M969.6 300.3 L980.1 300.3 L986.1 422.1 L977.6 422.1 Z" fill="#6E4A33"/><rect x="566.4" y="252.0" width="16.8" height="92.4" rx="8.4" fill="#B8653E"/><rect x="566.4" y="339.36" width="84.0" height="13.44" rx="6.72" fill="#BF7451"/><path d="M573.12 351.12 L579.0 351.12 L576.0 420.0 L572.12 420.0 Z" fill="#6E4A33"/><path d="M637.8 351.12 L643.68 351.12 L646.68 420.0 L642.8 420.0 Z" fill="#6E4A33"/><rect x="1045.2" y="252.0" width="16.8" height="92.4" rx="8.4" fill="#B8653E"/><rect x="978.0" y="339.36" width="84.0" height="13.44" rx="6.72" fill="#BF7451"/><path d="M984.72 351.12 L990.6 351.12 L987.6 420.0 L983.72 420.0 Z" fill="#6E4A33"/><path d="M1049.4 351.12 L1055.2800000000002 351.12 L1058.2800000000002 420.0 L1054.4 420.0 Z" fill="#6E4A33"/><path d="M768.0 285.6 Q810.0 298.20000000000005 852.0 285.6 Z" fill="#F6F0E7"/><circle cx="789.0" cy="277.6" r="10" fill="#D4A445"/><circle cx="810.0" cy="277.6" r="10" fill="#D98B63"/><circle cx="831.0" cy="277.6" r="10" fill="#7D8C6C"/><rect x="915.0" y="249.60000000000002" width="22" height="36" rx="8" fill="#B8653E"/><path d="M926.0 251.60000000000002 Q915.0 195.60000000000002 885.0 175.60000000000002" stroke="#5F6E51" stroke-width="3" fill="none"/><ellipse cx="910.0" cy="230.60000000000002" rx="9" ry="5" fill="#7D8C6C" transform="rotate(-30 910.0 230.60000000000002)"/><ellipse cx="903.0" cy="216.60000000000002" rx="9" ry="5" fill="#7D8C6C" transform="rotate(-30 903.0 216.60000000000002)"/><ellipse cx="896.0" cy="202.60000000000002" rx="9" ry="5" fill="#7D8C6C" transform="rotate(-30 896.0 202.60000000000002)"/><ellipse cx="889.0" cy="188.60000000000002" rx="9" ry="5" fill="#7D8C6C" transform="rotate(-30 889.0 188.60000000000002)"/><rect x="1220" y="140" width="260" height="10" rx="3" fill="#C49A6C"/><rect x="1232" y="150" width="6" height="16" fill="#9C7B56"/><rect x="1462" y="150" width="6" height="16" fill="#9C7B56"/><rect x="1238" y="82" width="14" height="58" rx="2" fill="#3F4E5E"/><rect x="1255" y="90" width="12" height="50" rx="2" fill="#B8653E"/><rect x="1270" y="78" width="16" height="62" rx="2" fill="#7D8C6C"/><rect x="1289" y="94" width="12" height="46" rx="2" fill="#D4A445"/><rect x="1304" y="86" width="14" height="54" rx="2" fill="#E8C3AE"/><path d="M1388.0 140 Q1380.0 110 1396.0 94 L1408.0 94 Q1424.0 110 1416.0 140 Z" fill="#F6F0E7"/><circle cx="1448.8" cy="122" r="16" fill="#7D8C6C"/><rect x="1436.8" y="128" width="24" height="12" rx="3" fill="#B9B0A3"/><rect x="1220" y="230" width="260" height="10" rx="3" fill="#C49A6C"/><rect x="1232" y="240" width="6" height="16" fill="#9C7B56"/><rect x="1462" y="240" width="6" height="16" fill="#9C7B56"/><rect x="1238" y="180" width="12" height="50" rx="2" fill="#B8653E"/><rect x="1253" y="168" width="16" height="62" rx="2" fill="#7D8C6C"/><rect x="1272" y="184" width="12" height="46" rx="2" fill="#D4A445"/><rect x="1287" y="176" width="14" height="54" rx="2" fill="#E8C3AE"/><path d="M1388.0 230 Q1380.0 200 1396.0 184 L1408.0 184 Q1424.0 200 1416.0 230 Z" fill="#D98B63"/></svg>