<svg xmlns="http://www.w3.org/2000/svg" viewBox="0 0 1600 480" width="1600" height="480"><rect width="1600" height="480" fill="#EEE4D6"/><rect y="374" width="1600" height="6" fill="#DFD6C9"/><rect y="380" width="1600" height="100" fill="#E3D3BD"/><line x1="133.33333333333334" y1="380" x2="-99.99999999999997" y2="480" stroke="#D5C6B1" stroke-width="2"/><line x1="266.6666666666667" y1="380" x2="80.00000000000006" y2="480" stroke="#D5C6B1" stroke-width="2"/><line x1="400.0" y1="380" x2="260.0" y2="480" stroke="#D5C6B1" stroke-width="2"/><line x1="533.3333333333334" y1="380" x2="440.00000000000006" y2="480" stroke="#D5C6B1" stroke-width="2"/><line x1="666.6666666666666" y1="380" x2="620.0" y2="480" stroke="#D5C6B1" stroke-width="2"/><line x1="800.0" y1="380" x2="800.0" y2="480" stroke="#D5C6B1" stroke-width="2"/><line x1="933.3333333333334" y1="380" x2="980.0" y2="480" stroke="#D5C6B1" stroke-width="2"/><line x1="1066.6666666666667" y1="380" x2="1160.0" y2="480" stroke="#D5C6B1" stroke-width="2"/><line x1="1200.0" y1="380" x2="1340.0" y2="480" stroke="#D5C6B1" stroke-width="2"/><line x1="1333.3333333333333" y1="380" x2="1520.0" y2="480" stroke="#D5C6B1" stroke-width="2"/><line x1="1466.6666666666667" y1="380" x2="1700.0" y2="480" stroke="#D5C6B1" stroke-width="2"/><path d="M140 340 L140 120.0 A80.0 80.0 0 0 1 300 120.0 L300 340 Z" fill="#FFFFFF"/><path d="M150 334 L150 120.0 A70.0 70.0 0 0 1 290 120.0 L290 334 Z" fill="#F3E3C8"/><circle cx="248.8" cy="112.0" r="14.399999999999999" fill="#F8D7A6"/><path d="M150 274.0 Q196.0 226.0 290 262.0 L290 334 L150 334 Z" fill="#A3B092" opacity=".8"/><line x1="220.0" y1="50" x2="220.0" y2="334" stroke="#FFFFFF" stroke-width="6"/><line x1="150" y1="205.0" x2="290" y2="205.0" stroke="#FFFFFF" stroke-width="6"/><rect x="126" y="336" width="188" height="14" rx="4" fill="#FFFFFF"/><rect x="640" y="40" width="150" height="110" rx="3" fill="#C49A6C"/><rect x="648" y="48" width="134" height="94" fill="#F6F0E7"/><circle cx="735.1" cy="83.72" r="21.44" fill="#D98B63"/><path d="M648 118.5 Q688.2 90.30000000000001 728.4 113.8 T782 106.28 L782 142 L648 142 Z" fill="#7D8C6C"/><rect x="820" y="50" width="110" height="100" rx="3" fill="#C49A6C"/><rect x="828" y="58" width="94" height="84" fill="#F6F0E7"/><path d="M842.1 142 L842.1 100.0 A18.8 18.8 0 0 1 879.7 100.0 L879.7 142 Z" fill="#B8653E"/><circle cx="895.68" cy="83.2" r="11.28" fill="#D4A445"/><rect x="884.4" y="108.4" width="28.2" height="33.6" fill="#A3B092"/><ellipse cx="475.0" cy="405" rx="66.0" ry="6" fill="#2B2420" opacity="0.13"/><rect x="420" y="311.5" width="110" height="76.67" rx="8" fill="#C49A6C"/><rect x="428" y="321.5" width="94" height="28.05" rx="5" fill="#C8A277"/><rect x="428" y="355.55" width="94" height="28.05" rx="5" fill="#C8A277"/><rect x="465.0" y="333.655" width="20" height="4" rx="2" fill="#6E4A33"/><rect x="465.0" y="367.705" width="20" height="4" rx="2" fill="#6E4A33"/><path d="M428 387.235 L434 387.235 L432 405.0 L428 405.0 Z" fill="#6E4A33"/><path d="M516 387.235 L522 387.235 L524 405.0 L520 405.0 Z" fill="#6E4A33"/><ellipse cx="458.5" cy="285.5" rx="16" ry="26" fill="#F6F0E7"/><path d="M432.5 263.5 L484.5 263.5 L476.5 225.5 L440.5 225.5 Z" fill="#E8C3AE"/><rect x="486.0" y="303.5" width="33.0" height="8" rx="2" fill="#7D8C6C"/><ellipse cx="1115.0" cy="405" rx="66.0" ry="6" fill="#2B2420" opacity="0.13"/><rect x="1060" y="311.5" width="110" height="76.67" rx="8" fill="#C49A6C"/><rect x="1068" y="321.5" width="94" height="28.05" rx="5" fill="#C8A277"/><rect x="1068" y="355.55" width="94" height="28.05" rx="5" fill="#C8A277"/><rect x="1105.0" y="333.655" width="20" height="4" rx="2" fill="#6E4A33"/><rect x="1105.0" y="367.705" width="20" height="4" rx="2" fill="#6E4A33"/><path d="M1068 387.235 L1074 387.235 L1072 405.0 L1068 405.0 Z" fill="#6E4A33"/><path d="M1156 387.235 L1162 387.235 L1164 405.0 L1160 405.0 Z" fill="#6E4A33"/><ellipse cx="1098.5" cy="285.5" rx="16" ry="26" fill="#F6F0E7"/><path d="M1072.5 263.5 L1124.5 263.5 L1116.5 225.5 L1080.5 225.5 Z" fill="#E8C3AE"/><rect x="1126.0" y="303.5" width="33.0" height="8" rx="2" fill="#7D8C6C"/><ellipse cx="790.0" cy="454.44" rx="266.79999999999995" ry="16.1" fill="#2B2420" opacity="0.13"/><rect x="578.4" y="178.44" width="423.20000000000005" height="138.0" rx="23.0" fill="#C49A6C"/><rect x="592.2" y="189.94" width="395.59999999999997" height="115.0" rx="18.400000000000002" fill="#C9A47A"/><rect x="560" y="277.8" width="460" height="78.2" rx="13.799999999999999" fill="#E9E1D3"/><rect x="606.0" y="245.60000000000002" width="170.2" height="50.6" rx="20.7" fill="#FFFFFF"/><rect x="619.8" y="254.8" width="142.6" height="8.28" rx="4.6000000000000005" fill="#F6F0E7"/><rect x="803.8" y="245.60000000000002" width="170.2" height="50.6" rx="20.7" fill="#FFFFFF"/><rect x="817.5999999999999" y="254.8" width="142.6" height="8.28" rx="4.6000000000000005" fill="#F6F0E7"/><path d="M555.4 300.8 Q790.0 287.0 1024.6 300.8 L1024.6 369.8 Q790.0 383.6 555.4 369.8 Z" fill="#7D8C6C"/><path d="M555.4 314.6 Q790.0 300.8 1024.6 314.6" stroke="#909D82" stroke-width="5.5200000000000005" fill="none"/><rect x="555.4" y="365.20000000000005" width="469.2" height="32.2" rx="9.200000000000001" fill="#C49A6C"/><path d="M573.8 392.8 L585.3 392.8 L582.3 425.0 L572.8 425.0 Z" fill="#6E4A33"/><path d="M997.0 392.8 L1008.5 392.8 L1011.5 425.0 L1002.0 425.0 Z" fill="#6E4A33"/><ellipse cx="1330" cy="420" rx="41.4" ry="6.3" fill="#2B2420" opacity="0.13"/><path d="M1295.8 357.0 L1364.2 357.0 L1357.0 420 L1303.0 420 Z" fill="#F6F0E7"/><rect x="1293.1" y="351.6" width="73.8" height="10.8" rx="4.5" fill="#E2DCD4"/><path d="M1330 353.4 Q1307.5 285.9 1267.0 218.39999999999998" stroke="#5F6E51" stroke-width="2.7" fill="none"/><ellipse cx="1267.0" cy="218.39999999999998" rx="30.6" ry="19.8" fill="#7D8C6C" transform="rotate(-35 1267.0 218.39999999999998)"/><path d="M1243.6 218.39999999999998 L1290.4 218.39999999999998" stroke="#94A086" stroke-width="1.8" transform="rotate(-35 1267.0 218.39999999999998)"/><path d="M1330 353.4 Q1366.0 276.9 1384.0 200.39999999999998" stroke="#5F6E51" stroke-width="2.7" fill="none"/><ellipse cx="1384.0" cy="200.39999999999998" rx="30.6" ry="19.8" fill="#5F6E51" transform="rotate(30 1384.0 200.39999999999998)"/><path d="M1360.6 200.39999999999998 L1407.4 200.39999999999998" stroke="#7B8870" stroke-width="1.8" transform="rotate(30 1384.0 200.39999999999998)"/><path d="M1330 353.4 Q1330.0 256.65 1312.0 159.89999999999998" stroke="#5F6E51" stroke-width="2.7" fill="none"/><ellipse cx="1312.0" cy="159.89999999999998" rx="30.6" ry="19.8" fill="#7D8C6C" transform="rotate(-8 1312.0 159.89999999999998)"/><path d="M1288.6 159.89999999999998 L1335.4 159.89999999999998" stroke="#94A086" stroke-width="1.8" transform="rotate(-8 1312.0 159.89999999999998)"/><path d="M1330 353.4 Q1381.75 310.65 1415.5 267.9" stroke="#5F6E51" stroke-width="2.7" fill="none"/><ellipse cx="1415.5" cy="267.9" rx="30.6" ry="19.8" fill="#5F6E51" transform="rotate(55 1415.5 267.9)"/><path d="M1392.1 267.9 L1438.9 267.9" stroke="#7B8870" stroke-width="1.8" transform="rotate(55 1415.5 267.9)"/><path d="M1330 353.4 Q1291.75 312.9 1235.5 272.4" stroke="#5F6E51" stroke-width="2.7" fill="none"/><ellipse cx="1235.5" cy="272.4" rx="30.6" ry="19.8" fill="#7D8C6C" transform="rotate(-60 1235.5 272.4)"/><path d="M1212.1 272.4 L1258.9 272.4" stroke="#94A086" stroke-width="1.8" transform="rotate(-60 1235.5 272.4)"/><path d="M1330 353.4 Q1350.25 299.4 1352.5 245.39999999999998" stroke="#5F6E51" stroke-width="2.7" fill="none"/><ellipse cx="1352.5" cy="245.39999999999998" rx="30.6" ry="19.8" fill="#5F6E51" transform="rotate(15 1352.5 245.39999999999998)"/><path d="M1329.1 245.39999999999998 L1375.9 245.39999999999998" stroke="#7B8870" stroke-width="1.8" transform="rotate(15 1352.5 245.39999999999998)"/></svg>