<svg xmlns="http://www.w3.org/2000/svg" viewBox="0 0 600 520" width="600" height="520"><rect width="600" height="520" fill="#E6EADF"/><rect y="380" width="600" height="140" fill="#D5D9CF"/><line x1="50.0" y1="380" x2="-37.5" y2="520" stroke="#C8CBC2" stroke-width="2"/><line x1="100.0" y1="380" x2="30.0" y2="520" stroke="#C8CBC2" stroke-width="2"/><line x1="150.0" y1="380" x2="97.5" y2="520" stroke="#C8CBC2" stroke-width="2"/><line x1="200.0" y1="380" x2="165.0" y2="520" stroke="#C8CBC2" stroke-width="2"/><line x1="250.0" y1="380" x2="232.5" y2="520" stroke="#C8CBC2" stroke-width="2"/><line x1="300.0" y1="380" x2="300.0" y2="520" stroke="#C8CBC2" stroke-width="2"/><line x1="350.0" y1="380" x2="367.5" y2="520" stroke="#C8CBC2" stroke-width="2"/><line x1="400.0" y1="380" x2="435.0" y2="520" stroke="#C8CBC2" stroke-width="2"/><line x1="450.0" y1="380" x2="502.5" y2="520" stroke="#C8CBC2" stroke-width="2"/><line x1="500.0" y1="380" x2="570.0" y2="520" stroke="#C8CBC2" stroke-width="2"/><line x1="550.0" y1="380" x2="637.5" y2="520" stroke="#C8CBC2" stroke-width="2"/><rect x="225" y="50" width="150" height="120" rx="3" fill="#C49A6C"/><rect x="233" y="58" width="134" height="104" fill="#F6F0E7"/><circle cx="320.1" cy="97.52000000000001" r="21.44" fill="#D98B63"/><path d="M233 136.0 Q273.2 104.80000000000001 313.4 130.8 T367 122.48 L367 162 L233 162 Z" fill="#7D8C6C"/><ellipse cx="300.0" cy="429.80800000000005" rx="264.0" ry="14.399999999999999" fill="#2B2420" opacity="0.13"/><rect x="76.32000000000001" y="249.04" width="447.36" height="105.6" rx="19.2" fill="#667258"/><rect x="103.80000000000001" y="258.64" width="126.79999999999998" height="90.81599999999999" rx="14.399999999999999" fill="#7D8C6C"/><rect x="110.80000000000001" y="263.44" width="112.79999999999998" height="19.008" rx="9.6" fill="#8C997D" opacity=".55"/><rect x="236.6" y="258.64" width="126.79999999999998" height="90.81599999999999" rx="14.399999999999999" fill="#7D8C6C"/><rect x="243.6" y="263.44" width="112.79999999999998" height="19.008" rx="9.6" fill="#8C997D" opacity=".55"/><rect x="369.4" y="258.64" width="126.79999999999998" height="90.81599999999999" rx="14.399999999999999" fill="#7D8C6C"/><rect x="376.4" y="263.44" width="112.79999999999998" height="19.008" rx="9.6" fill="#8C997D" opacity=".55"/><rect x="60" y="368.208" width="480" height="33.6" rx="9.6" fill="#667258"/><rect x="102.80000000000001" y="331.408" width="128.79999999999998" height="40.800000000000004" rx="12.0" fill="#8C997D"/><rect x="235.6" y="331.408" width="128.79999999999998" height="40.800000000000004" rx="12.0" fill="#8C997D"/><rect x="368.4" y="331.408" width="128.79999999999998" height="40.800000000000004" rx="12.0" fill="#8C997D"/><rect x="60" y="307.408" width="40.800000000000004" height="93.60000000000001" rx="18.360000000000003" fill="#7D8C6C"/><rect x="67.344" y="309.808" width="26.112000000000002" height="9.6" rx="4.8" fill="#8C997D" opacity=".6"/><rect x="499.2" y="307.408" width="40.800000000000004" height="93.60000000000001" rx="18.360000000000003" fill="#7D8C6C"/><rect x="506.544" y="309.808" width="26.112000000000002" height="9.6" rx="4.8" fill="#8C997D" opacity=".6"/><path d="M88.8 399.80800000000005 L96.8 399.80800000000005 L93.8 423.80800000000005 L87.8 423.80800000000005 Z" fill="#6E4A33"/><path d="M503.2 399.80800000000005 L511.2 399.80800000000005 L514.2 423.80800000000005 L508.2 423.80800000000005 Z" fill="#6E4A33"/><ellipse cx="500" cy="490.0" rx="44.0" ry="5.6000000000000005" fill="#2B2420" opacity="0.13"/><rect x="460" y="448.0" width="80" height="42.0" rx="18.0" fill="#D4A445"/><ellipse cx="500" cy="455.2" rx="36.800000000000004" ry="6.4" fill="#D9AE5B"/><path d="M469.6 458.0 Q466.4 472.0 469.6 488.0" stroke="#B48B3A" stroke-width="2" fill="none" opacity=".55"/><path d="M484.8 458.0 Q483.2 472.0 484.8 488.0" stroke="#B48B3A" stroke-width="2" fill="none" opacity=".55"/><path d="M500.0 458.0 Q500.0 472.0 500.0 488.0" stroke="#B48B3A" stroke-width="2" fill="none" opacity=".55"/><path d="M515.2 458.0 Q516.8 472.0 515.2 488.0" stroke="#B48B3A" stroke-width="2" fill="none" opacity=".55"/><path d="M530.4 458.0 Q533.6 472.0 530.4 488.0" stroke="#B48B3A" stroke-width="2" fill="none" opacity=".55"/></svg>